<svg width="442" height="73" viewBox="0 0 442 73" fill="none" xmlns="http://www.w3.org/2000/svg">
<g clip-path="url(#clip0_112_1882)">
<path d="M2.89014 0.161369C-4.62687 15.5591 3.50318 31.7927 15.9537 41.8819C31.3088 54.3321 51.8018 55.0947 70.514 51.9711C115.412 44.5069 156.938 20.8383 203.645 30.6489C214.636 32.9659 225.919 38.9343 231.743 48.9502C234.283 53.3056 236.779 59.8753 235.348 64.9932C233.918 70.1404 227.306 69.5392 223.905 66.093C221.817 63.9813 220.679 61.2391 220.577 58.2769C219.818 36.0601 252.236 39.257 266.088 40.1222C284.42 41.2513 302.476 46.8092 320.283 51.0032C340.878 55.8572 361.663 60.3739 382.842 61.5617C400.839 62.5735 425.74 61.7963 437.723 45.768C446.612 33.8751 441.314 13.2714 424.718 13.3301C422.383 13.3301 421.624 15.7791 424.178 16.3363C434.031 18.492 437.49 31.7047 433.885 40.0782C429.228 50.8859 416.209 55.036 405.583 56.6198C382.959 60.0073 359.663 55.6812 337.55 50.9153C317.043 46.5012 296.623 40.0928 275.809 37.2479C262.351 35.4149 245.726 34.0364 232.502 37.7172C219.613 41.31 208.053 58.7461 221.058 69.2166C225.35 72.6774 232.02 74.3492 237.085 71.5482C243.128 68.2194 240.603 57.1037 238.53 51.8978C231.144 33.3765 210.228 27.3494 192.348 25.6043C171.87 23.5953 151.96 26.4988 132.212 31.91C105.983 39.0957 78.5419 50.9593 50.9552 50.2994C36.5196 49.9621 23.1204 45.2548 13.341 34.271C5.15254 25.0471 0.963448 12.4649 3.53237 0.220024C3.60535 -0.117264 2.99231 -0.131928 2.87554 0.11737L2.89014 0.161369Z" fill="#2F313C"/>
</g>
<defs>
<clipPath id="clip0_112_1882">
<rect width="73" height="442" fill="white" transform="translate(0 73) rotate(-90)"/>
</clipPath>
</defs>
</svg>
