<svg width="597" height="597" viewBox="0 0 597 597" fill="none" xmlns="http://www.w3.org/2000/svg">
<g opacity="0.7">
<mask id="mask0_622_77" style="mask-type:alpha" maskUnits="userSpaceOnUse" x="0" y="0" width="597" height="597">
<circle cx="298.5" cy="298.5" r="298.5" fill="url(#paint0_radial_622_77)"/>
</mask>
<g mask="url(#mask0_622_77)">
<path d="M291.772 291.771C324.7 357.055 356.769 423.197 274.735 583.113C280.319 583.399 286.045 583.543 291.772 583.543C302.939 583.543 313.963 582.97 324.843 581.681C328.279 581.252 331.715 580.822 335.008 580.393C382.396 406.59 337.585 348.608 291.772 291.771Z" fill="#1E1186"/>
<path d="M291.772 291.771C353.047 331.858 413.749 373.232 422.626 552.619C427.636 550.042 432.647 547.322 437.658 544.458C447.393 538.875 456.556 532.862 465.432 526.276C468.152 524.272 470.872 522.124 473.593 519.977C427.636 345.888 359.919 318.257 291.772 291.771Z" fill="#1E1186"/>
<path d="M291.772 291.771C364.787 295.923 438.088 301.22 535.583 452.26C538.733 447.535 541.596 442.668 544.46 437.8C550.043 428.065 555.054 418.186 559.349 408.165C560.78 405.015 562.069 401.865 563.214 398.716C436.513 270.726 363.928 280.604 291.772 291.771Z" fill="#1E1186"/>
<path d="M291.772 291.771C357.056 258.843 423.198 226.774 583.114 308.808C583.401 303.225 583.544 297.498 583.544 291.771C583.544 280.604 582.971 269.581 581.683 258.7C581.253 255.264 580.824 251.828 580.394 248.535C406.591 201.291 348.752 246.102 291.772 291.771Z" fill="#1E1186"/>
<path d="M291.772 291.771C331.859 230.497 373.234 169.794 552.62 160.918C550.043 155.907 547.323 150.897 544.459 145.886C538.876 136.151 532.863 126.988 526.277 118.112C524.273 115.392 522.126 112.671 519.978 109.951C345.889 156.051 318.258 223.768 291.772 291.771Z" fill="#1E1186"/>
<path d="M291.915 291.771C296.066 218.757 301.364 145.456 452.403 47.9602C447.679 44.8105 442.811 41.9472 437.943 39.0839C428.208 33.5004 418.33 28.4897 408.308 24.1947C405.159 22.763 402.009 21.4745 398.859 20.3292C270.726 147.174 280.748 219.759 291.915 291.771Z" fill="#1E1186"/>
<path d="M291.772 291.771C258.844 226.488 226.775 160.345 308.809 0.429496C303.225 0.143165 297.499 0 291.772 0C280.605 0 269.582 0.572662 258.701 1.86115C255.265 2.29065 251.829 2.72014 248.536 3.14964C201.292 177.096 246.102 234.935 291.772 291.771Z" fill="#1E1186"/>
<path d="M291.772 291.771C230.497 251.685 169.795 210.31 160.919 30.9236C155.908 33.5006 150.897 36.2207 145.887 39.084C136.151 44.6675 126.989 50.6804 118.113 57.266C115.392 59.2703 112.672 61.4178 109.952 63.5653C156.051 237.655 223.769 265.429 291.772 291.771Z" fill="#1E1186"/>
<path d="M291.77 291.771C212.456 287.19 144.882 282.179 47.9591 131.282C44.8094 136.007 41.9461 140.875 39.0828 145.742C33.4993 155.477 28.4886 165.356 24.1936 175.377C22.7619 178.527 21.4734 181.677 20.3281 184.826C147.173 312.816 219.758 302.938 291.77 291.771Z" fill="#1E1186"/>
<path d="M291.771 291.771C226.488 324.699 160.345 356.768 0.429496 274.735C0.143165 280.318 0 286.045 0 291.771C0 302.938 0.572662 313.962 1.86115 324.843C2.29065 328.279 2.72014 331.714 3.14964 335.007C177.096 382.395 234.935 337.584 291.771 291.771Z" fill="#1E1186"/>
<path d="M291.77 291.771C251.684 353.046 210.309 413.748 30.9229 422.624C33.4998 427.635 36.22 432.646 39.0833 437.657C44.6667 447.392 50.6797 456.555 57.2653 465.431C59.2696 468.151 61.4171 470.871 63.5646 473.591C237.654 427.635 265.428 359.775 291.77 291.771Z" fill="#1E1186"/>
<path d="M291.771 291.771C287.619 364.786 282.322 438.086 131.282 535.582C136.007 538.732 140.874 541.595 145.742 544.458C155.477 550.042 165.356 555.053 175.377 559.348C178.527 560.779 181.676 562.068 184.826 563.213C312.816 436.512 302.938 363.927 291.771 291.771Z" fill="#1E1186"/>
</g>
</g>
<defs>
<radialGradient id="paint0_radial_622_77" cx="0" cy="0" r="1" gradientUnits="userSpaceOnUse" gradientTransform="translate(298.5 298.5) rotate(90) scale(298.5)">
<stop stop-color="white" stop-opacity="0"/>
<stop offset="0.4375" stop-color="white" stop-opacity="0.5"/>
<stop offset="0.6875" stop-color="white" stop-opacity="0.21"/>
<stop offset="0.932292" stop-color="white" stop-opacity="0"/>
</radialGradient>
</defs>
</svg>
