<svg width="135" height="98" viewBox="0 0 135 98" fill="none" xmlns="http://www.w3.org/2000/svg">
<g filter="url(#filter0_dddd_411_3480)">
<path d="M20.3239 75.4243C20.3239 75.3576 20.3239 75.291 20.3372 75.2376C21.2708 65.9954 22.8313 57.1933 25.1121 48.3511C22.858 39.7091 21.2975 31.1203 20.3372 22.1048C20.2705 21.4647 20.5239 20.8379 21.0308 20.4244C21.5243 20.011 22.2045 19.891 22.818 20.0777C27.2594 21.478 37.7562 24.5588 42.1576 25.8257C43.1712 26.1191 43.7581 27.1727 43.4647 28.1863C43.1713 29.1999 42.1176 29.7867 41.1039 29.4933C37.4627 28.4397 29.6202 26.1458 24.4852 24.5854C25.4322 32.534 26.9127 40.1758 28.9266 47.8577C29.0067 48.1778 29.0067 48.5112 28.9266 48.8313C26.8726 56.7265 25.3922 64.5684 24.4452 72.7303C45.3186 66.2354 66.7255 60.8342 88.1058 56.6732C88.626 56.5665 89.1728 56.6865 89.5996 57.0066C90.0264 57.3133 90.3065 57.7934 90.3732 58.3269C90.5866 60.074 90.8133 61.781 91.0801 63.5015C96.5485 57.7534 102.39 52.8589 108.806 48.6712C102.39 44.4702 96.5485 39.589 91.0801 33.841C90.8133 35.5614 90.5733 37.2685 90.3732 39.0156C90.3065 39.5357 90.0264 40.0158 89.5996 40.3359C89.1728 40.6426 88.626 40.7627 88.1058 40.6693C75.235 38.162 62.2574 35.2013 49.5733 31.8405C48.5463 31.5738 47.9461 30.5202 48.2129 29.5066C48.4796 28.493 49.5333 27.8796 50.547 28.1463C62.4975 31.307 74.7015 34.1211 86.8387 36.5216C87.1588 34.1211 87.5323 31.7472 87.9724 29.3332C88.1058 28.6131 88.6393 28.0396 89.3329 27.8395C90.0398 27.6395 90.7867 27.8662 91.2802 28.413C97.9623 35.9482 105.191 42.043 113.367 47.0442C113.941 47.3909 114.288 48.0044 114.288 48.6712C114.288 49.3381 113.941 49.9515 113.367 50.2983C105.191 55.2995 97.9623 61.3943 91.2802 68.9294C90.8 69.4762 90.0397 69.703 89.3329 69.5029C88.626 69.3029 88.1058 68.7294 87.9724 68.0092C87.5323 65.5953 87.1588 63.2214 86.8387 60.8208C65.3117 65.0885 43.7715 70.6098 22.8047 77.2514C22.1911 77.4515 21.5242 77.3181 21.0308 76.918C20.5773 76.5446 20.3239 75.9978 20.3239 75.4243Z" fill="#96C8FF"/>
<path d="M21.4705 21.9048C21.4705 21.678 21.5772 21.4647 21.7506 21.318C21.9506 21.1579 22.2174 21.1046 22.4708 21.1846C26.9256 22.5983 37.4356 25.6657 41.8371 26.946C42.2372 27.066 42.4773 27.4928 42.3572 27.8929C42.2372 28.293 41.8104 28.533 41.4103 28.413C37.3289 27.226 28.0326 24.5054 23.1243 22.985C24.098 31.6138 25.6452 39.8557 27.8325 48.1511C27.8725 48.2844 27.8725 48.4178 27.8325 48.5378C25.6185 57.0466 24.0713 65.5019 23.1243 74.3441C44.4913 67.6224 66.4317 62.0611 88.3454 57.7934C88.5588 57.7534 88.7723 57.8067 88.9456 57.9268C89.119 58.0468 89.2257 58.2468 89.2524 58.4469C89.5592 60.9808 89.9193 63.4614 90.3461 65.9687C96.6281 59.0871 103.39 53.3923 110.939 48.6445C103.39 43.8967 96.6281 38.2154 90.3461 31.3204C89.9193 33.8276 89.5592 36.3082 89.2524 38.8555C89.2257 39.0689 89.119 39.2556 88.9456 39.3756C88.7723 39.4957 88.5588 39.549 88.3454 39.509C75.488 37.0151 62.5504 34.041 49.8797 30.7069C49.4662 30.6002 49.2261 30.1734 49.3328 29.7733C49.4395 29.3599 49.853 29.1198 50.2665 29.2265C62.6305 32.494 75.2746 35.4013 87.8253 37.8553C88.1721 35.0546 88.5989 32.3206 89.1057 29.5066C89.159 29.2132 89.3724 28.9865 89.6525 28.9064C89.9326 28.8264 90.2394 28.9198 90.4261 29.1332C97.1883 36.7617 104.497 42.9232 112.78 47.9777C113.007 48.1111 113.14 48.3645 113.14 48.6312C113.14 48.8979 113.007 49.138 112.78 49.2847C104.511 54.3392 97.1883 60.5141 90.4261 68.1292C90.2261 68.3426 89.9326 68.436 89.6525 68.3559C89.3724 68.2759 89.159 68.0492 89.1057 67.7558C88.5989 64.9551 88.1721 62.2211 87.8253 59.4205C65.8582 63.7282 43.8644 69.3429 22.4708 76.1178C22.2307 76.1978 21.964 76.1445 21.7639 75.9844C21.5638 75.8244 21.4571 75.5843 21.4838 75.3176C22.4174 66.0354 24.0046 57.2066 26.312 48.3245C24.0313 39.6424 22.4575 31.0136 21.4838 21.9581C21.4705 21.9581 21.4705 21.9314 21.4705 21.9048Z" fill="#E6FFFF"/>
<path d="M21.9507 21.9046C21.9507 21.8246 21.9907 21.7313 22.0574 21.6779C22.1375 21.6112 22.2308 21.5979 22.3242 21.6246C26.779 23.0382 37.3024 26.119 41.7038 27.386C41.8505 27.426 41.9439 27.586 41.9038 27.746C41.8638 27.8927 41.7038 27.9861 41.5437 27.9461C37.2757 26.7191 27.2458 23.7851 22.5776 22.3181C23.5512 31.2269 25.1251 39.7356 27.3791 48.2843C27.3925 48.3377 27.3925 48.3777 27.3791 48.431C25.0984 57.1931 23.5246 65.9019 22.5776 75.0374C44.1312 68.2091 66.2851 62.5678 88.4256 58.2734C88.5056 58.2601 88.5856 58.2734 88.6523 58.3267C88.719 58.3801 88.759 58.4468 88.7723 58.5268C89.1191 61.3941 89.5326 64.1948 90.0394 67.0488C96.6416 59.6471 103.791 53.6323 111.833 48.6711C103.791 43.6966 96.6416 37.6818 90.0261 30.3067C89.5193 33.1607 89.1058 35.948 88.759 38.8287C88.7457 38.9087 88.7057 38.9754 88.639 39.0288C88.5723 39.0821 88.4923 39.0954 88.4122 39.0821C75.5681 36.5882 62.6439 33.6275 49.9865 30.28C49.8397 30.24 49.733 30.0799 49.7864 29.9332C49.8264 29.7865 49.9865 29.6932 50.1332 29.7332C62.6839 33.054 75.488 35.988 88.2255 38.4686C88.5856 35.4946 89.0258 32.6005 89.5726 29.6398C89.5993 29.5331 89.666 29.4398 89.7727 29.4131C89.8794 29.3864 89.9861 29.4131 90.0661 29.4931C96.8683 37.1483 104.204 43.3498 112.527 48.431C112.7 48.5377 112.7 48.8178 112.527 48.9245C104.217 54.0057 96.8683 60.2072 90.0661 67.8624C89.9994 67.9424 89.8794 67.9824 89.7727 67.9424C89.666 67.9157 89.5859 67.8224 89.5726 67.7157C89.0258 64.755 88.5856 61.8609 88.2255 58.8869C66.0717 63.2079 43.8912 68.8626 22.3108 75.7043C22.2175 75.7309 22.1241 75.7176 22.0441 75.6509C21.9641 75.5842 21.9374 75.4909 21.9374 75.3975C22.871 66.102 24.4582 57.2465 26.779 48.351C24.4849 39.6556 22.911 31.0135 21.9374 21.9446C21.9507 21.9313 21.9507 21.918 21.9507 21.9046Z" fill="#C0FFFF"/>
</g>
<defs>
<filter id="filter0_dddd_411_3480" x="0.32373" y="-0.00793457" width="133.964" height="97.3513" filterUnits="userSpaceOnUse" color-interpolation-filters="sRGB">
<feFlood flood-opacity="0" result="BackgroundImageFix"/>
<feColorMatrix in="SourceAlpha" type="matrix" values="0 0 0 0 0 0 0 0 0 0 0 0 0 0 0 0 0 0 127 0" result="hardAlpha"/>
<feOffset/>
<feGaussianBlur stdDeviation="7.5"/>
<feComposite in2="hardAlpha" operator="out"/>
<feColorMatrix type="matrix" values="0 0 0 0 0 0 0 0 0 0.776471 0 0 0 0 1 0 0 0 0.62 0"/>
<feBlend mode="normal" in2="BackgroundImageFix" result="effect1_dropShadow_411_3480"/>
<feColorMatrix in="SourceAlpha" type="matrix" values="0 0 0 0 0 0 0 0 0 0 0 0 0 0 0 0 0 0 127 0" result="hardAlpha"/>
<feOffset/>
<feGaussianBlur stdDeviation="10"/>
<feComposite in2="hardAlpha" operator="out"/>
<feColorMatrix type="matrix" values="0 0 0 0 0 0 0 0 0 0.776471 0 0 0 0 1 0 0 0 0.62 0"/>
<feBlend mode="normal" in2="effect1_dropShadow_411_3480" result="effect2_dropShadow_411_3480"/>
<feColorMatrix in="SourceAlpha" type="matrix" values="0 0 0 0 0 0 0 0 0 0 0 0 0 0 0 0 0 0 127 0" result="hardAlpha"/>
<feOffset/>
<feGaussianBlur stdDeviation="10"/>
<feComposite in2="hardAlpha" operator="out"/>
<feColorMatrix type="matrix" values="0 0 0 0 0 0 0 0 0 0.776471 0 0 0 0 1 0 0 0 0.62 0"/>
<feBlend mode="normal" in2="effect2_dropShadow_411_3480" result="effect3_dropShadow_411_3480"/>
<feColorMatrix in="SourceAlpha" type="matrix" values="0 0 0 0 0 0 0 0 0 0 0 0 0 0 0 0 0 0 127 0" result="hardAlpha"/>
<feOffset/>
<feGaussianBlur stdDeviation="10"/>
<feComposite in2="hardAlpha" operator="out"/>
<feColorMatrix type="matrix" values="0 0 0 0 0 0 0 0 0 0.776471 0 0 0 0 1 0 0 0 0.62 0"/>
<feBlend mode="normal" in2="effect3_dropShadow_411_3480" result="effect4_dropShadow_411_3480"/>
<feBlend mode="normal" in="SourceGraphic" in2="effect4_dropShadow_411_3480" result="shape"/>
</filter>
</defs>
</svg>
