<svg width="234" height="200" viewBox="0 0 234 200" fill="none" xmlns="http://www.w3.org/2000/svg">
<g filter="url(#filter0_dddd_602_35)">
<path d="M47.4584 179.084C46.8427 179.084 46.2023 178.911 45.6358 178.591C44.355 177.827 43.69 176.323 43.9856 174.868L53.8622 125.954C34.3799 114.44 23.2472 98.1438 23.2472 80.9104C23.2472 47.4052 65.2412 20.1375 116.866 20.1375C168.49 20.1375 210.484 47.4052 210.484 80.9104C210.484 109.805 180.189 134.238 136.816 140.303C134.895 140.574 133.097 139.218 132.826 137.295C132.555 135.372 133.909 133.572 135.831 133.301C174.992 127.828 203.44 105.787 203.44 80.9104C203.44 51.3006 164.598 27.2132 116.866 27.2132C69.1328 27.2132 30.2914 51.3006 30.2914 80.9104C30.2914 96.1468 40.9315 110.767 59.5025 121.023C60.8571 121.763 61.5714 123.291 61.2512 124.82L52.8524 166.486L92.5312 133.695C93.3194 133.054 94.3292 132.783 95.339 132.931C102.359 134.065 109.6 134.632 116.866 134.632C118.811 134.632 120.388 136.21 120.388 138.158C120.388 140.106 118.811 141.683 116.866 141.683C109.772 141.683 102.703 141.166 95.807 140.155L49.6997 178.27C49.0594 178.813 48.2466 179.084 47.4584 179.084Z" fill="#96C8FF"/>
<path d="M47.4585 176.964C47.2122 176.964 46.9659 176.89 46.7443 176.767C46.227 176.471 45.9807 175.855 46.0793 175.288L56.2514 124.869C36.5967 113.726 25.3655 97.7497 25.3655 80.9107C25.3655 48.5642 66.4236 22.2581 116.866 22.2581C167.332 22.2581 208.366 48.5642 208.366 80.9107C208.366 108.277 178.145 132.389 136.52 138.207C135.732 138.306 135.043 137.788 134.919 136.999C134.821 136.235 135.338 135.52 136.126 135.397C176.347 129.776 205.558 106.847 205.558 80.9107C205.558 50.1175 165.781 25.0933 116.866 25.0933C67.9506 25.0933 28.1733 50.1421 28.1733 80.9107C28.1733 96.9361 39.2321 112.246 58.4927 122.872C59.0346 123.168 59.3055 123.785 59.1824 124.401L49.6013 171.91L93.886 135.298C94.2062 135.052 94.6002 134.928 95.0189 135.002C102.137 136.136 109.501 136.728 116.866 136.728C117.654 136.728 118.27 137.369 118.27 138.133C118.27 138.922 117.629 139.539 116.866 139.539C109.551 139.539 102.26 138.972 95.1914 137.887L48.3452 176.644C48.0989 176.841 47.7787 176.964 47.4585 176.964Z" fill="#C0FFFF"/>
<path d="M47.4584 176.077C47.3599 176.077 47.2614 176.052 47.1875 176.003C46.9905 175.879 46.892 175.657 46.9412 175.436L57.2365 124.401C37.5326 113.43 26.2521 97.6018 26.2521 80.9108C26.2521 49.0573 66.9161 23.1456 116.89 23.1456C166.864 23.1456 207.528 49.0573 207.528 80.9108C207.528 107.833 177.628 131.575 136.446 137.32C136.151 137.369 135.88 137.147 135.855 136.876C135.806 136.58 136.028 136.309 136.299 136.284C176.963 130.589 206.469 107.316 206.469 80.9108C206.469 49.6491 166.298 24.2058 116.89 24.2058C67.5072 24.2058 27.3112 49.6491 27.3112 80.9108C27.3112 97.2812 38.5178 112.863 58.074 123.661C58.271 123.785 58.3941 124.007 58.3449 124.228L48.2712 174.178L94.477 135.989C94.6002 135.89 94.7479 135.841 94.8957 135.865C102.063 137.024 109.477 137.591 116.89 137.591C117.186 137.591 117.407 137.838 117.407 138.109C117.407 138.38 117.161 138.627 116.89 138.627C109.501 138.627 102.112 138.06 94.9696 136.925L47.8033 175.953C47.7048 176.027 47.5816 176.077 47.4584 176.077Z" fill="#E6FFFF"/>
</g>
<g opacity="0.6" filter="url(#filter1_f_602_35)">
<ellipse cx="117.19" cy="80.8582" rx="86.6918" ry="39.6249" fill="#1A4551"/>
</g>
<defs>
<filter id="filter0_dddd_602_35" x="3.24719" y="0.137451" width="227.237" height="198.947" filterUnits="userSpaceOnUse" color-interpolation-filters="sRGB">
<feFlood flood-opacity="0" result="BackgroundImageFix"/>
<feColorMatrix in="SourceAlpha" type="matrix" values="0 0 0 0 0 0 0 0 0 0 0 0 0 0 0 0 0 0 127 0" result="hardAlpha"/>
<feOffset/>
<feGaussianBlur stdDeviation="7.5"/>
<feComposite in2="hardAlpha" operator="out"/>
<feColorMatrix type="matrix" values="0 0 0 0 0 0 0 0 0 0.776471 0 0 0 0 1 0 0 0 0.62 0"/>
<feBlend mode="normal" in2="BackgroundImageFix" result="effect1_dropShadow_602_35"/>
<feColorMatrix in="SourceAlpha" type="matrix" values="0 0 0 0 0 0 0 0 0 0 0 0 0 0 0 0 0 0 127 0" result="hardAlpha"/>
<feOffset/>
<feGaussianBlur stdDeviation="10"/>
<feComposite in2="hardAlpha" operator="out"/>
<feColorMatrix type="matrix" values="0 0 0 0 0 0 0 0 0 0.776471 0 0 0 0 1 0 0 0 0.62 0"/>
<feBlend mode="normal" in2="effect1_dropShadow_602_35" result="effect2_dropShadow_602_35"/>
<feColorMatrix in="SourceAlpha" type="matrix" values="0 0 0 0 0 0 0 0 0 0 0 0 0 0 0 0 0 0 127 0" result="hardAlpha"/>
<feOffset/>
<feGaussianBlur stdDeviation="10"/>
<feComposite in2="hardAlpha" operator="out"/>
<feColorMatrix type="matrix" values="0 0 0 0 0 0 0 0 0 0.776471 0 0 0 0 1 0 0 0 0.62 0"/>
<feBlend mode="normal" in2="effect2_dropShadow_602_35" result="effect3_dropShadow_602_35"/>
<feColorMatrix in="SourceAlpha" type="matrix" values="0 0 0 0 0 0 0 0 0 0 0 0 0 0 0 0 0 0 127 0" result="hardAlpha"/>
<feOffset/>
<feGaussianBlur stdDeviation="10"/>
<feComposite in2="hardAlpha" operator="out"/>
<feColorMatrix type="matrix" values="0 0 0 0 0 0 0 0 0 0.776471 0 0 0 0 1 0 0 0 0.62 0"/>
<feBlend mode="normal" in2="effect3_dropShadow_602_35" result="effect4_dropShadow_602_35"/>
<feBlend mode="normal" in="SourceGraphic" in2="effect4_dropShadow_602_35" result="shape"/>
</filter>
<filter id="filter1_f_602_35" x="0.498535" y="11.2333" width="233.384" height="139.25" filterUnits="userSpaceOnUse" color-interpolation-filters="sRGB">
<feFlood flood-opacity="0" result="BackgroundImageFix"/>
<feBlend mode="normal" in="SourceGraphic" in2="BackgroundImageFix" result="shape"/>
<feGaussianBlur stdDeviation="15" result="effect1_foregroundBlur_602_35"/>
</filter>
</defs>
</svg>
