<svg width="371" height="159" viewBox="0 0 371 159" fill="none" xmlns="http://www.w3.org/2000/svg">
<g clip-path="url(#clip0_112_1814)">
<path d="M188.294 9.84137C132.977 20.9073 39.5425 -13.8648 8.24032 52.2551C-19.5134 110.834 60.9254 137.302 102.745 145.895C169.44 159.6 239.975 153.931 303.461 129.275C328.766 119.457 359.838 106.057 366.68 76.8837C372.61 51.6485 353.987 34.618 332.664 25.1942C265.917 -4.24627 178.293 -3.87267 114.409 32.8927C113.6 33.3486 113.846 35.5244 114.93 35.0832C170.329 13.5994 227.253 3.55502 286.227 15.7819C310.598 20.8407 350.4 29.2202 362.083 54.2325C378.009 88.3527 334.929 111.452 309.869 121.809C255.458 144.265 195.238 152.564 136.716 146.373C107.971 143.331 77.9758 137.414 51.3557 125.827C26.3572 114.987 -0.853403 93.4339 7.90738 62.6803C17.6839 28.3947 55.1262 16.3768 87.0535 14.9594C121.012 13.4594 155.18 20.6176 188.413 10.793C188.753 10.692 188.657 9.76246 188.271 9.84205L188.294 9.84137Z" fill="#2F313C"/>
</g>
<defs>
<clipPath id="clip0_112_1814">
<rect width="365.326" height="147.662" fill="white" transform="translate(0.620117 10.7498) rotate(-1.68619)"/>
</clipPath>
</defs>
</svg>
