<svg width="311" height="158" viewBox="0 0 311 158" fill="none" xmlns="http://www.w3.org/2000/svg">
<path d="M0.296509 91.9175C1.24887 105.503 11.3537 114.171 22.1114 121.134C34.2718 129.017 47.2537 135.65 60.7265 140.965C86.6255 151.19 114.347 156.261 142.203 155.475C171.874 154.641 201.206 147 227.656 133.561C251.779 121.293 278.377 103.275 293.036 79.9509C328.055 24.1926 227.155 2.45098 190.78 0.603837C163.738 -0.763692 136.601 2.7627 110.41 9.46856C85.2866 15.9038 57.6121 24.3646 36.401 39.8006C16.4813 54.282 6.97021 76.9907 13.9785 101.047C21.371 126.42 42.186 144.498 66.9814 152.178C95.5082 161.012 127.444 158.307 156.379 153.034C189.694 146.963 221.788 135.633 252.702 121.998C266.441 115.944 281.056 110.125 293.532 101.632C302.573 95.4805 310.284 86.6422 310.862 75.2681C312.392 45.2263 275.512 31.6398 252.848 23.1073C198.377 2.59411 133.812 -2.98118 77.8212 15.2202C51.6159 23.7399 27.4589 40.3709 18.4007 67.4523C10.0892 92.3051 16.4483 118.954 37.8399 134.927C61.6481 152.687 93.2447 151.398 121.352 148.517C154.053 145.169 186.219 137.143 216.724 124.897C232.429 118.598 247.558 111.142 262.135 102.555C265.416 100.631 262.352 97.9408 259.624 99.4832C208.675 128.333 148.304 147.802 89.1849 145.87C62.4769 144.99 33.4797 134.051 23.7767 106.879C14.903 82.043 25.4602 53.4989 45.1119 36.9672C66.32 19.129 95.5881 13.1747 122.436 10.3188C149.602 7.42443 177.225 8.74541 204.02 14.0332C230.154 19.1861 256.852 27.6676 280.14 40.7452C292.889 47.9086 305.737 59.9919 305 75.9026C304.379 89.3323 293.191 97.7916 282.281 103.617C230.049 131.469 169.046 153.651 109.244 153.603C83.7652 153.579 56.2796 148.164 37.6663 129.496C21.1489 112.935 11.183 86.4726 21.3943 64.0443C31.6337 41.5461 57.2095 31.2602 78.9605 23.2631C102.266 14.7091 126.481 8.50154 151.174 5.77033C176.2 2.99685 201.74 3.83073 226.267 9.69494C238.691 12.67 250.82 16.8787 262.341 22.3739C273.559 27.7317 285.765 34.3852 291.734 45.8151C305.143 71.4795 275.428 96.528 257.6 110.418C235.557 127.59 209.981 140.092 182.838 146.803C130.711 159.709 74.1319 149.529 28.1908 122.361C16.3043 115.325 3.1426 106.447 0.80004 91.8137C0.760008 91.606 0.274957 91.7204 0.281928 91.9214L0.296509 91.9175Z" fill="#2B194D"/>
</svg>
