<svg width="312" height="154" viewBox="0 0 312 154" fill="none" xmlns="http://www.w3.org/2000/svg">
<path d="M0.493615 76.1458C0.143729 89.7602 9.37424 99.3536 19.4175 107.313C30.7692 116.322 43.058 124.164 55.9614 130.743C80.7651 143.395 107.876 151.091 135.679 152.97C165.294 154.974 195.222 150.17 222.835 139.32C248.019 129.413 276.217 114.018 293.037 92.201C333.224 40.0433 234.861 8.76153 198.829 3.44776C172.042 -0.496967 144.692 0.420757 117.98 4.59374C92.3569 8.59941 64.0008 14.3776 41.412 27.7166C20.1999 40.2287 8.56282 61.925 13.2409 86.5404C18.1756 112.503 37.1682 132.488 61.1164 142.502C88.6688 154.021 120.717 154.378 150.023 151.895C183.766 149.034 216.796 140.822 248.871 130.202C263.126 125.489 278.229 121.092 291.46 113.831C301.047 108.571 309.567 100.509 311.229 89.2426C315.622 59.4844 280.209 42.4367 258.464 31.778C206.201 6.15469 142.464 -5.56332 84.991 7.20578C58.0916 13.183 32.4563 27.43 20.8522 53.5222C10.2045 77.4672 13.9886 104.601 33.7564 122.545C55.759 142.498 87.3341 144.234 115.588 144.051C148.459 143.843 181.245 138.927 212.78 129.651C229.015 124.881 244.788 118.905 260.118 111.75C263.569 110.147 260.775 107.177 257.912 108.452C204.44 132.303 142.485 145.915 83.8211 138.344C57.3193 134.916 29.4998 121.257 22.4371 93.2817C15.9766 67.712 29.2125 40.307 50.3537 25.7283C73.169 9.99788 102.872 6.86697 129.87 6.58898C157.188 6.30318 184.559 10.2571 210.726 18.0806C236.248 25.7066 262.014 36.6999 283.946 51.9426C295.952 60.2912 307.587 73.5466 305.333 89.3142C303.432 102.623 291.487 109.975 280.071 114.731C225.416 137.466 162.573 153.718 103.049 147.957C77.6897 145.5 50.8471 137.484 34.1023 117.123C19.2427 99.0592 11.8505 71.7659 24.1577 50.4158C36.4997 28.9987 62.9412 21.2032 85.3567 15.3207C109.373 9.03228 134.07 5.16651 158.911 4.80689C184.088 4.43696 209.431 7.70694 233.286 15.8876C245.368 20.0359 257.04 25.3841 267.983 31.9548C278.638 38.3599 290.153 46.1491 295.003 58.0969C305.898 84.925 273.926 107.02 254.853 119.143C231.27 134.131 204.617 144.132 176.957 148.22C123.835 156.087 68.4874 140.548 25.3519 109.115C14.1919 100.976 1.93863 90.8805 1.00475 76.0907C0.984747 75.8801 0.490989 75.9476 0.478728 76.1483L0.493615 76.1458Z" fill="#2F313C"/>
</svg>
