<svg width="283" height="193" viewBox="0 0 283 193" fill="none" xmlns="http://www.w3.org/2000/svg">
<g clip-path="url(#clip0_112_1809)">
<path d="M21.5125 9.25883C21.3163 24.0443 23.6174 39.1347 24.8126 53.8663C26.0077 68.6517 27.185 83.4372 28.1839 98.2405C29.1829 113.008 30.0034 127.811 30.6456 142.597C31.2521 156.539 31.0023 170.714 33.1251 184.531C33.4105 186.343 35.444 186.307 35.6402 184.477C37.0673 170.571 35.8364 156.413 35.1586 142.489C34.4094 127.147 33.4997 111.806 32.3937 96.4821C31.3413 81.9658 30.1283 67.4675 28.5229 53.005C26.9174 38.5067 25.9185 23.2189 22.0477 9.13323C21.9228 8.6667 21.5125 8.82819 21.5125 9.25883Z" fill="#2F313C"/>
<path d="M12.5758 172.544C57.4563 172.347 102.283 169.673 147.181 169.817C169.354 169.889 191.545 170.337 213.699 171.181C236.3 172.042 259.204 174.518 281.805 173.621C283.285 173.567 283.41 170.212 282.037 169.961C260.756 166.085 238.619 165.869 217.053 165.098C194.309 164.29 171.548 163.878 148.787 163.878C103.532 163.878 57.4384 164.434 12.5223 170.499C11.6483 170.624 11.6661 172.527 12.5758 172.527V172.544Z" fill="#2F313C"/>
<path d="M266.625 192.067C265.216 177.048 261.327 162.245 259.062 147.316C256.529 130.664 254.602 113.923 253.514 97.1101C251.445 65.1348 253.871 33.644 254.638 1.72258C254.673 -0.143542 252.64 -0.771564 252.247 1.29194C246.182 32.9801 247.164 66.8933 249.429 98.9224C250.535 114.551 252.247 130.18 254.727 145.647C257.224 161.24 259.472 177.91 265.501 192.569C265.858 193.449 266.714 192.803 266.643 192.067H266.625Z" fill="#2F313C"/>
<path d="M0.374512 25.713C23.8137 31.5984 48.6442 33.949 72.672 36.0125C95.13 37.9325 117.731 38.5246 140.278 37.9504C187.959 36.7482 235.372 30.1809 281.965 20.1864C283.357 19.8814 283.267 16.7233 281.894 16.9566C235.426 24.8158 188.851 32.2265 141.669 33.644C119.657 34.3079 97.663 33.6799 75.6866 32.1906C50.5172 30.486 25.6153 26.1795 0.481541 24.2775C-0.107114 24.2237 -0.124952 25.5874 0.39235 25.7309H0.374512V25.713Z" fill="#2F313C"/>
</g>
<defs>
<clipPath id="clip0_112_1809">
<rect width="283" height="193" fill="white"/>
</clipPath>
</defs>
</svg>
