<svg width="116" height="132" viewBox="0 0 116 132" fill="none" xmlns="http://www.w3.org/2000/svg">
<g clip-path="url(#clip0_112_1967)">
<path d="M92.849 129.986C121.174 121.038 121.865 83.3215 103.644 64.7358C92.0718 52.919 77.4776 47.5268 61.9624 45.9494C72.066 30.3466 86.1708 19.2181 102.118 8.92141C100.823 11.0439 99.5272 13.1376 98.2319 15.26C96.0442 18.8166 93.655 21.9429 92.9642 26.073C92.6763 27.7365 96.1305 27.7652 96.9365 27.0482C103.845 20.9103 108.019 10.6136 112.653 2.69751C113.603 1.03397 110.552 0.0587999 109.545 0.144845C102.291 0.861884 95.0367 1.52156 87.7828 2.2386C84.2134 2.58278 78.5139 1.86574 76.1247 4.90599C76.0672 4.96335 76.1247 5.02071 76.1535 5.0494C79.5502 7.65942 85.1633 5.96721 89.1357 5.68039C92.0718 5.47962 95.0079 5.27885 97.9152 5.07808C80.5289 13.1663 64.7257 28.052 54.4494 45.4618C36.401 44.9455 17.6042 48.9322 1.28288 53.4639C-0.99116 54.0949 0.419317 56.0166 2.29036 55.6724C18.2662 52.7182 35.6526 48.9896 52.3768 49.1904C46.7925 59.6305 43.1943 70.8163 42.4171 81.8874C40.5749 108.59 63.2001 139.337 92.849 129.986ZM51.3981 103.227C46.2168 89.3159 48.865 73.6271 54.4206 60.3188C56.0038 56.5042 57.8173 52.9477 59.7747 49.5632C72.7281 50.7392 85.0482 54.812 95.7563 64.1048C114.208 80.0805 118.151 119.747 88.3873 126.516C72.1524 130.216 56.8673 117.911 51.3981 103.255L51.3981 103.227Z" fill="#2F313C"/>
</g>
<defs>
<clipPath id="clip0_112_1967">
<rect width="131.562" height="115.832" fill="white" transform="translate(115.963 0.14502) rotate(90)"/>
</clipPath>
</defs>
</svg>
