<svg width="79" height="92" viewBox="0 0 79 92" fill="none" xmlns="http://www.w3.org/2000/svg">
<g clip-path="url(#clip0_7_125)">
<path d="M36.8948 3.89206C41.9174 14.9643 48.6532 19.5945 54.5442 25.9023C60.4352 32.2772 66.3262 38.585 72.2171 44.9599C72.0528 45.2283 71.8651 45.4296 71.7008 45.698C71.6304 45.6309 71.56 45.4967 71.4661 45.4296C60.8576 38.2495 49.1931 41.0678 38.3264 40.3968C25.8639 39.6586 13.3544 38.5179 0.915276 39.9942C-0.0469942 40.1284 -0.516394 43.4165 0.680576 43.752C12.439 47.1743 24.2679 48.1809 36.0733 49.523C46.3767 50.6638 57.2902 54.69 67.617 51.6703C59.2382 63.8833 50.8829 76.1634 42.7857 89.8527C42.0347 91.1276 43.2551 92.4697 43.7011 91.9329C55.2953 78.7133 66.5609 63.2794 77.8734 48.248C79.352 46.302 79.3755 42.0073 77.803 40.3297C70.8559 32.814 63.9322 25.2312 56.9851 17.7155C50.789 11.0051 44.6164 2.41576 37.9979 0.134222C37.2468 -0.134195 35.8621 1.74472 36.8713 3.95917L36.8948 3.89206Z" fill="#2B194D"/>
</g>
<defs>
<clipPath id="clip0_7_125">
<rect width="92" height="79" fill="white" transform="translate(0 92) rotate(-90)"/>
</clipPath>
</defs>
</svg>
