<svg width="490" height="123" viewBox="0 0 490 123" fill="none" xmlns="http://www.w3.org/2000/svg">
<g filter="url(#filter0_ddddddiii_411_3278)">
<path d="M38.098 98.5C35.73 98.5 33.7567 97.8833 32.178 96.65C30.5993 95.4167 29.81 93.6407 29.81 91.322C29.81 88.51 30.9447 86.2407 33.214 84.514C35.4833 82.8367 38.3693 81.4307 41.872 80.296L42.76 76.374C40.244 79.0873 37.284 80.444 33.88 80.444C31.068 80.444 28.7247 79.482 26.85 77.558C24.9753 75.634 24.038 72.6247 24.038 68.53C24.038 64.8793 24.7533 61.056 26.184 57.06C27.664 53.0147 29.8347 49.6107 32.696 46.848C35.6067 44.036 39.06 42.63 43.056 42.63C45.0787 42.63 46.5833 42.9753 47.57 43.666C48.5567 44.3567 49.05 45.2693 49.05 46.404V46.848L49.864 43H60.52L53.194 77.336C55.562 76.5467 57.4613 75.3627 58.892 73.784C60.3227 72.2053 61.5313 69.862 62.518 66.754H65.626C64.294 71.1447 62.4933 74.376 60.224 76.448C57.9547 78.4707 55.3893 79.852 52.528 80.592L51.418 85.92C50.4313 90.7053 48.7293 93.986 46.312 95.762C43.8947 97.5873 41.1567 98.5 38.098 98.5ZM38.69 73.266C39.8247 73.266 40.984 72.748 42.168 71.712C43.352 70.676 44.166 69.27 44.61 67.494L48.384 49.956C48.384 49.364 48.1373 48.772 47.644 48.18C47.1507 47.5387 46.386 47.218 45.35 47.218C43.3767 47.218 41.6007 48.3773 40.022 50.696C38.4433 52.9653 37.21 55.728 36.322 58.984C35.434 62.1907 34.99 65.0273 34.99 67.494C34.99 69.9607 35.3353 71.5393 36.026 72.23C36.766 72.9207 37.654 73.266 38.69 73.266ZM36.396 92.728C37.2347 92.728 38.0487 92.1607 38.838 91.026C39.6273 89.8913 40.244 88.2633 40.688 86.142L41.132 83.996C36.2973 85.772 33.88 87.8687 33.88 90.286C33.88 90.9273 34.102 91.4947 34.546 91.988C34.99 92.4813 35.6067 92.728 36.396 92.728ZM73.3099 80.296C69.6592 80.296 66.7732 79.3587 64.6519 77.484C62.5305 75.6093 61.4699 72.6493 61.4699 68.604C61.4699 65.2493 62.1605 61.5247 63.5419 57.43C64.9232 53.3353 67.1432 49.808 70.2019 46.848C73.2605 43.8387 77.1085 42.334 81.7459 42.334C88.0605 42.334 91.2179 46.3053 91.2179 54.248C91.2179 59.1813 90.4532 63.646 88.9239 67.642C87.3945 71.5887 85.2485 74.6967 82.4859 76.966C79.7725 79.186 76.7139 80.296 73.3099 80.296ZM76.2699 73.636C77.9472 73.636 79.4519 72.5013 80.7839 70.232C82.1652 67.9133 83.2259 65.052 83.9659 61.648C84.7552 58.1947 85.1499 54.9387 85.1499 51.88C85.1499 50.1533 84.9525 48.8953 84.5579 48.106C84.1632 47.2673 83.4232 46.848 82.3379 46.848C80.7099 46.848 79.1312 48.032 77.6019 50.4C76.0725 52.768 74.8392 55.6047 73.9019 58.91C72.9645 62.2153 72.4959 65.126 72.4959 67.642C72.4959 70.01 72.7672 71.6133 73.3099 72.452C73.8525 73.2413 74.8392 73.636 76.2699 73.636ZM122.39 33.824H115.36L116.248 30.42C118.962 30.42 121.774 30.05 124.684 29.31C127.595 28.57 131.048 27.016 135.044 24.648L123.278 80H112.622L122.39 33.824ZM165.176 80.37C160.834 80.37 157.504 79.4327 155.186 77.558C152.867 75.6833 151.708 73.0193 151.708 69.566C151.708 66.458 152.596 63.9667 154.372 62.092C156.148 60.168 158.466 59.206 161.328 59.206C164.337 59.206 166.088 60.464 166.582 62.98C164.559 63.2267 162.931 63.9667 161.698 65.2C160.514 66.384 159.922 67.938 159.922 69.862C159.922 71.5887 160.44 72.9453 161.476 73.932C162.512 74.9187 163.893 75.412 165.62 75.412C168.481 75.412 170.824 74.1293 172.65 71.564C174.475 68.9987 175.388 65.718 175.388 61.722C175.388 58.318 174.672 55.7033 173.242 53.878C171.811 52.0033 169.813 51.066 167.248 51.066C164.633 51.066 161.402 52.176 157.554 54.396L156.592 53.73L162.29 25.684C167.864 26.3253 172.008 26.646 174.722 26.646C179.211 26.646 183.503 25.9553 187.598 24.574C187.696 25.6593 187.746 26.4733 187.746 27.016C187.746 29.5813 187.055 31.6533 185.674 33.232C184.342 34.8107 182.196 35.6 179.236 35.6C178.101 35.6 176.744 35.4767 175.166 35.23C173.587 34.9833 172.082 34.712 170.652 34.416C169.418 34.1693 168.16 33.9473 166.878 33.75L163.918 47.144C167.124 45.6147 170.183 44.85 173.094 44.85C177.139 44.85 180.321 46.2313 182.64 48.994C185.008 51.7073 186.192 55.4073 186.192 60.094C186.192 64.09 185.304 67.6173 183.528 70.676C181.801 73.7347 179.334 76.1273 176.128 77.854C172.97 79.5313 169.32 80.37 165.176 80.37ZM205.69 80.74C200.263 80.74 196.415 79.0873 194.146 75.782C191.876 72.4767 190.742 67.9627 190.742 62.24C190.742 55.432 191.802 49.1173 193.924 43.296C196.045 37.4747 199.005 32.8373 202.804 29.384C206.652 25.8813 211.018 24.13 215.902 24.13C220.638 24.13 224.19 25.7087 226.557 28.866C228.975 32.0233 230.184 36.3647 230.184 41.89C230.184 47.366 229.345 53.1133 227.668 59.132C225.99 65.1013 223.302 70.2073 219.602 74.45C215.951 78.6433 211.314 80.74 205.69 80.74ZM206.652 75.19C208.97 75.19 211.166 73.414 213.238 69.862C215.31 66.31 216.962 61.7467 218.196 56.172C219.478 50.5973 220.12 44.9733 220.12 39.3C220.12 36.192 219.75 33.6267 219.01 31.604C218.27 29.532 217.209 28.496 215.828 28.496C213.558 28.496 211.338 30.2967 209.168 33.898C206.997 37.4993 205.221 42.0873 203.84 47.662C202.458 53.2367 201.768 58.7127 201.768 64.09C201.768 71.49 203.396 75.19 206.652 75.19ZM246.809 80.74C241.382 80.74 237.534 79.0873 235.265 75.782C232.995 72.4767 231.861 67.9627 231.861 62.24C231.861 55.432 232.921 49.1173 235.043 43.296C237.164 37.4747 240.124 32.8373 243.923 29.384C247.771 25.8813 252.137 24.13 257.021 24.13C261.757 24.13 265.309 25.7087 267.677 28.866C270.094 32.0233 271.303 36.3647 271.303 41.89C271.303 47.366 270.464 53.1133 268.787 59.132C267.109 65.1013 264.421 70.2073 260.721 74.45C257.07 78.6433 252.433 80.74 246.809 80.74ZM247.771 75.19C250.089 75.19 252.285 73.414 254.357 69.862C256.429 66.31 258.081 61.7467 259.315 56.172C260.597 50.5973 261.239 44.9733 261.239 39.3C261.239 36.192 260.869 33.6267 260.129 31.604C259.389 29.532 258.328 28.496 256.947 28.496C254.677 28.496 252.457 30.2967 250.287 33.898C248.116 37.4993 246.34 42.0873 244.959 47.662C243.577 53.2367 242.887 58.7127 242.887 64.09C242.887 71.49 244.515 75.19 247.771 75.19ZM303.248 80.74C297.821 80.74 293.973 79.0873 291.704 75.782C289.435 72.4767 288.3 67.9627 288.3 62.24C288.3 55.432 289.361 49.1173 291.482 43.296C293.603 37.4747 296.563 32.8373 300.362 29.384C304.21 25.8813 308.576 24.13 313.46 24.13C318.196 24.13 321.748 25.7087 324.116 28.866C326.533 32.0233 327.742 36.3647 327.742 41.89C327.742 47.366 326.903 53.1133 325.226 59.132C323.549 65.1013 320.86 70.2073 317.16 74.45C313.509 78.6433 308.872 80.74 303.248 80.74ZM304.21 75.19C306.529 75.19 308.724 73.414 310.796 69.862C312.868 66.31 314.521 61.7467 315.754 56.172C317.037 50.5973 317.678 44.9733 317.678 39.3C317.678 36.192 317.308 33.6267 316.568 31.604C315.828 29.532 314.767 28.496 313.386 28.496C311.117 28.496 308.897 30.2967 306.726 33.898C304.555 37.4993 302.779 42.0873 301.398 47.662C300.017 53.2367 299.326 58.7127 299.326 64.09C299.326 71.49 300.954 75.19 304.21 75.19ZM344.367 80.74C338.941 80.74 335.093 79.0873 332.823 75.782C330.554 72.4767 329.419 67.9627 329.419 62.24C329.419 55.432 330.48 49.1173 332.601 43.296C334.723 37.4747 337.683 32.8373 341.481 29.384C345.329 25.8813 349.695 24.13 354.579 24.13C359.315 24.13 362.867 25.7087 365.235 28.866C367.653 32.0233 368.861 36.3647 368.861 41.89C368.861 47.366 368.023 53.1133 366.345 59.132C364.668 65.1013 361.979 70.2073 358.279 74.45C354.629 78.6433 349.991 80.74 344.367 80.74ZM345.329 75.19C347.648 75.19 349.843 73.414 351.915 69.862C353.987 66.31 355.64 61.7467 356.873 56.172C358.156 50.5973 358.797 44.9733 358.797 39.3C358.797 36.192 358.427 33.6267 357.687 31.604C356.947 29.532 355.887 28.496 354.505 28.496C352.236 28.496 350.016 30.2967 347.845 33.898C345.675 37.4993 343.899 42.0873 342.517 47.662C341.136 53.2367 340.445 58.7127 340.445 64.09C340.445 71.49 342.073 75.19 345.329 75.19ZM385.486 80.74C380.06 80.74 376.212 79.0873 373.942 75.782C371.673 72.4767 370.538 67.9627 370.538 62.24C370.538 55.432 371.599 49.1173 373.72 43.296C375.842 37.4747 378.802 32.8373 382.6 29.384C386.448 25.8813 390.814 24.13 395.698 24.13C400.434 24.13 403.986 25.7087 406.354 28.866C408.772 32.0233 409.98 36.3647 409.98 41.89C409.98 47.366 409.142 53.1133 407.464 59.132C405.787 65.1013 403.098 70.2073 399.398 74.45C395.748 78.6433 391.11 80.74 385.486 80.74ZM386.448 75.19C388.767 75.19 390.962 73.414 393.034 69.862C395.106 66.31 396.759 61.7467 397.992 56.172C399.275 50.5973 399.916 44.9733 399.916 39.3C399.916 36.192 399.546 33.6267 398.806 31.604C398.066 29.532 397.006 28.496 395.624 28.496C393.355 28.496 391.135 30.2967 388.964 33.898C386.794 37.4993 385.018 42.0873 383.636 47.662C382.255 53.2367 381.564 58.7127 381.564 64.09C381.564 71.49 383.192 75.19 386.448 75.19ZM449.696 50.474L447.402 52.398H463.904L462.868 56.098H443.776C440.569 60.0447 438.966 64.164 438.966 68.456C438.966 70.6267 439.607 72.378 440.89 73.71C442.172 74.9927 444.072 75.634 446.588 75.634C449.005 75.634 450.88 75.0173 452.212 73.784C453.593 72.5013 454.284 70.9473 454.284 69.122C454.284 66.2113 452.483 64.756 448.882 64.756C449.918 61.4013 452.212 59.724 455.764 59.724C458.033 59.724 459.809 60.3653 461.092 61.648C462.424 62.9307 463.09 64.756 463.09 67.124C463.09 69.8867 462.251 72.3287 460.574 74.45C458.946 76.522 456.676 78.1253 453.766 79.26C450.855 80.3947 447.574 80.962 443.924 80.962C438.892 80.962 435.044 79.9013 432.38 77.78C429.716 75.6587 428.384 72.6493 428.384 68.752C428.384 64.904 430.628 60.686 435.118 56.098H427.57L428.606 52.398H439.262C440.446 51.4607 441.704 50.4987 443.036 49.512C443.973 48.8213 444.762 48.18 445.404 47.588H429.42L430.456 43.888H449.326C452.878 40.04 454.654 36.5127 454.654 33.306C454.654 29.8527 452.779 28.126 449.03 28.126C446.168 28.126 443.899 28.7673 442.222 30.05C440.594 31.2833 439.78 32.862 439.78 34.786C439.78 37.006 440.421 38.5107 441.704 39.3C440.322 40.336 438.916 40.854 437.486 40.854C436.154 40.854 435.118 40.4593 434.378 39.67C433.687 38.8313 433.342 37.7213 433.342 36.34C433.342 34.2187 434.106 32.27 435.636 30.494C437.214 28.6687 439.385 27.2133 442.148 26.128C444.91 25.0427 448.043 24.5 451.546 24.5C455.838 24.5 459.143 25.2893 461.462 26.868C463.83 28.4467 465.014 30.6913 465.014 33.602C465.014 35.5753 464.471 37.3513 463.386 38.93C462.35 40.4593 460.746 42.112 458.576 43.888H465.754L464.718 47.588H453.692L449.696 50.474Z" fill="#BB8531"/>
</g>
<defs>
<filter id="filter0_ddddddiii_411_3278" x="0.0379639" y="0.130005" width="489.716" height="122.37" filterUnits="userSpaceOnUse" color-interpolation-filters="sRGB">
<feFlood flood-opacity="0" result="BackgroundImageFix"/>
<feColorMatrix in="SourceAlpha" type="matrix" values="0 0 0 0 0 0 0 0 0 0 0 0 0 0 0 0 0 0 127 0" result="hardAlpha"/>
<feOffset/>
<feGaussianBlur stdDeviation="2.5"/>
<feComposite in2="hardAlpha" operator="out"/>
<feColorMatrix type="matrix" values="0 0 0 0 1 0 0 0 0 0.89726 0 0 0 0 0 0 0 0 0.6 0"/>
<feBlend mode="normal" in2="BackgroundImageFix" result="effect1_dropShadow_411_3278"/>
<feColorMatrix in="SourceAlpha" type="matrix" values="0 0 0 0 0 0 0 0 0 0 0 0 0 0 0 0 0 0 127 0" result="hardAlpha"/>
<feOffset/>
<feGaussianBlur stdDeviation="3.5"/>
<feComposite in2="hardAlpha" operator="out"/>
<feColorMatrix type="matrix" values="0 0 0 0 1 0 0 0 0 0.902944 0 0 0 0 0.0553223 0 0 0 0.7 0"/>
<feBlend mode="normal" in2="effect1_dropShadow_411_3278" result="effect2_dropShadow_411_3278"/>
<feColorMatrix in="SourceAlpha" type="matrix" values="0 0 0 0 0 0 0 0 0 0 0 0 0 0 0 0 0 0 127 0" result="hardAlpha"/>
<feOffset/>
<feGaussianBlur stdDeviation="8.5"/>
<feComposite in2="hardAlpha" operator="out"/>
<feColorMatrix type="matrix" values="0 0 0 0 1 0 0 0 0 0.89726 0 0 0 0 0 0 0 0 0.3 0"/>
<feBlend mode="normal" in2="effect2_dropShadow_411_3278" result="effect3_dropShadow_411_3278"/>
<feColorMatrix in="SourceAlpha" type="matrix" values="0 0 0 0 0 0 0 0 0 0 0 0 0 0 0 0 0 0 127 0" result="hardAlpha"/>
<feOffset/>
<feGaussianBlur stdDeviation="12"/>
<feComposite in2="hardAlpha" operator="out"/>
<feColorMatrix type="matrix" values="0 0 0 0 1 0 0 0 0 0.89726 0 0 0 0 0 0 0 0 0.4 0"/>
<feBlend mode="normal" in2="effect3_dropShadow_411_3278" result="effect4_dropShadow_411_3278"/>
<feColorMatrix in="SourceAlpha" type="matrix" values="0 0 0 0 0 0 0 0 0 0 0 0 0 0 0 0 0 0 127 0" result="hardAlpha"/>
<feOffset dx="2" dy="2"/>
<feGaussianBlur stdDeviation="0.5"/>
<feComposite in2="hardAlpha" operator="out"/>
<feColorMatrix type="matrix" values="0 0 0 0 0.678431 0 0 0 0 0.454902 0 0 0 0 0.00784314 0 0 0 1 0"/>
<feBlend mode="normal" in2="effect4_dropShadow_411_3278" result="effect5_dropShadow_411_3278"/>
<feColorMatrix in="SourceAlpha" type="matrix" values="0 0 0 0 0 0 0 0 0 0 0 0 0 0 0 0 0 0 127 0" result="hardAlpha"/>
<feOffset dx="5" dy="7"/>
<feGaussianBlur stdDeviation="2"/>
<feComposite in2="hardAlpha" operator="out"/>
<feColorMatrix type="matrix" values="0 0 0 0 0 0 0 0 0 0 0 0 0 0 0 0 0 0 0.25 0"/>
<feBlend mode="normal" in2="effect5_dropShadow_411_3278" result="effect6_dropShadow_411_3278"/>
<feBlend mode="normal" in="SourceGraphic" in2="effect6_dropShadow_411_3278" result="shape"/>
<feColorMatrix in="SourceAlpha" type="matrix" values="0 0 0 0 0 0 0 0 0 0 0 0 0 0 0 0 0 0 127 0" result="hardAlpha"/>
<feOffset/>
<feGaussianBlur stdDeviation="3.5"/>
<feComposite in2="hardAlpha" operator="arithmetic" k2="-1" k3="1"/>
<feColorMatrix type="matrix" values="0 0 0 0 1 0 0 0 0 0.941176 0 0 0 0 0.427451 0 0 0 1 0"/>
<feBlend mode="normal" in2="shape" result="effect7_innerShadow_411_3278"/>
<feColorMatrix in="SourceAlpha" type="matrix" values="0 0 0 0 0 0 0 0 0 0 0 0 0 0 0 0 0 0 127 0" result="hardAlpha"/>
<feOffset/>
<feGaussianBlur stdDeviation="3.5"/>
<feComposite in2="hardAlpha" operator="arithmetic" k2="-1" k3="1"/>
<feColorMatrix type="matrix" values="0 0 0 0 1 0 0 0 0 0.941176 0 0 0 0 0.427451 0 0 0 1 0"/>
<feBlend mode="normal" in2="effect7_innerShadow_411_3278" result="effect8_innerShadow_411_3278"/>
<feColorMatrix in="SourceAlpha" type="matrix" values="0 0 0 0 0 0 0 0 0 0 0 0 0 0 0 0 0 0 127 0" result="hardAlpha"/>
<feOffset/>
<feGaussianBlur stdDeviation="3.5"/>
<feComposite in2="hardAlpha" operator="arithmetic" k2="-1" k3="1"/>
<feColorMatrix type="matrix" values="0 0 0 0 1 0 0 0 0 0.941176 0 0 0 0 0.427451 0 0 0 1 0"/>
<feBlend mode="normal" in2="effect8_innerShadow_411_3278" result="effect9_innerShadow_411_3278"/>
</filter>
</defs>
</svg>
