<svg width="70" height="60" viewBox="0 0 70 60" fill="none" xmlns="http://www.w3.org/2000/svg">
<g clip-path="url(#clip0_411_6886)">
<g filter="url(#filter0_dd_411_6886)">
<path d="M32.9416 38.0886L20.1752 43.0272C19.0823 43.4518 17.854 42.8955 17.4333 41.7926L10.7793 24.2828C10.3586 23.1799 10.9099 21.9404 12.0028 21.5158L29.3583 14.7959C30.4512 14.3714 31.6795 14.9277 32.1002 16.0306L35.1903 24.1657C35.5674 23.707 36.0027 23.2922 36.4814 22.9457L33.6283 15.4401C32.8836 13.4832 30.7027 12.5023 28.7684 13.2538L11.4128 19.9688C9.47365 20.7204 8.5065 22.9213 9.24637 24.8733L15.9004 42.3879C16.6451 44.3449 18.826 45.3209 20.7603 44.5742L34.2183 39.3672C33.7444 39.0012 33.314 38.5717 32.9416 38.0886Z" fill="#FF267E"/>
<path d="M25.5528 30.9783C24.4212 31.4175 23.1494 30.8465 22.719 29.7046C22.2838 28.5627 22.8496 27.2792 23.9811 26.8449C25.1127 26.4057 26.3845 26.9766 26.8149 28.1186C27.2501 29.2605 26.6843 30.544 25.5528 30.9783Z" fill="#FF267E"/>
<path d="M29.344 22.3943C28.2125 22.8335 26.9406 22.2626 26.5103 21.1206C26.075 19.9787 26.6408 18.6952 27.7724 18.2609C28.904 17.8217 30.1758 18.3926 30.6062 19.5346C31.0414 20.6765 30.4756 21.96 29.344 22.3943Z" fill="#FF267E"/>
<path d="M21.7471 39.6013C20.6155 40.0406 19.3437 39.4696 18.9133 38.3276C18.4781 37.1857 19.0439 35.9022 20.1755 35.4679C21.307 35.0287 22.5789 35.5997 23.0092 36.7416C23.4445 37.8787 22.8787 39.1621 21.7471 39.6013Z" fill="#FF267E"/>
<path d="M61.1198 32.2374L49.7944 46.4873C48.4114 48.2246 45.8871 48.5077 44.1656 47.112L30.0452 35.6828C28.3236 34.2871 28.0432 31.7397 29.4262 30.0024L40.7516 15.7525C42.1346 14.0152 44.6589 13.7321 46.3804 15.1278L60.5008 26.557C62.2224 27.9478 62.5028 30.5001 61.1198 32.2374ZM30.7028 31.0369C29.8856 32.0618 30.05 33.5697 31.0703 34.3944L45.1908 45.8236C46.2063 46.6483 47.7006 46.4824 48.5178 45.4527L59.8432 31.2029C60.6604 30.178 60.496 28.6701 59.4756 27.8454L45.3504 16.4162C44.3349 15.5915 42.8406 15.7574 42.0234 16.7871L30.7028 31.0369Z" fill="#FF267E"/>
<path d="M46.6463 29.3921C47.5941 30.1583 47.744 31.5491 46.9848 32.5056C46.2256 33.4621 44.8474 33.6134 43.8996 32.8472C42.9518 32.081 42.8019 30.6902 43.5611 29.7337C44.3155 28.7821 45.6985 28.6259 46.6463 29.3921Z" fill="#FF267E"/>
<path d="M37.3907 30.4174C38.3385 31.1836 38.4884 32.5744 37.7292 33.5309C36.97 34.4874 35.5918 34.6387 34.644 33.8725C33.6962 33.1063 33.5463 31.7155 34.3055 30.759C35.0599 29.8074 36.4429 29.6561 37.3907 30.4174Z" fill="#FF267E"/>
<path d="M55.9407 28.3629C56.8886 29.1291 57.0385 30.5199 56.2792 31.4764C55.52 32.4329 54.1418 32.5842 53.194 31.818C52.2462 31.0518 52.0963 29.661 52.8555 28.7045C53.6099 27.748 54.9929 27.5967 55.9407 28.3629Z" fill="#FF267E"/>
<path d="M45.9838 23.1458C45.2246 24.1023 43.8464 24.2536 42.8986 23.4874C41.9508 22.7213 41.8009 21.3304 42.5601 20.3739C43.3193 19.4174 44.6975 19.2662 45.6453 20.0323C46.5883 20.7936 46.7431 22.1893 45.9838 23.1458Z" fill="#FF267E"/>
<path d="M48.0245 41.866C47.2653 42.8225 45.8871 42.9738 44.9393 42.2076C43.9915 41.4415 43.8415 40.0506 44.6008 39.0941C45.36 38.1376 46.7382 37.9864 47.686 38.7525C48.629 39.5138 48.7789 40.9095 48.0245 41.866Z" fill="#FF267E"/>
</g>
</g>
<defs>
<filter id="filter0_dd_411_6886" x="-1.0022" y="3.00098" width="73.0011" height="54.998" filterUnits="userSpaceOnUse" color-interpolation-filters="sRGB">
<feFlood flood-opacity="0" result="BackgroundImageFix"/>
<feColorMatrix in="SourceAlpha" type="matrix" values="0 0 0 0 0 0 0 0 0 0 0 0 0 0 0 0 0 0 127 0" result="hardAlpha"/>
<feOffset/>
<feGaussianBlur stdDeviation="5"/>
<feComposite in2="hardAlpha" operator="out"/>
<feColorMatrix type="matrix" values="0 0 0 0 1 0 0 0 0 0.14902 0 0 0 0 0.494118 0 0 0 1 0"/>
<feBlend mode="normal" in2="BackgroundImageFix" result="effect1_dropShadow_411_6886"/>
<feColorMatrix in="SourceAlpha" type="matrix" values="0 0 0 0 0 0 0 0 0 0 0 0 0 0 0 0 0 0 127 0" result="hardAlpha"/>
<feOffset/>
<feGaussianBlur stdDeviation="5"/>
<feComposite in2="hardAlpha" operator="out"/>
<feColorMatrix type="matrix" values="0 0 0 0 1 0 0 0 0 0.14902 0 0 0 0 0.494118 0 0 0 1 0"/>
<feBlend mode="normal" in2="effect1_dropShadow_411_6886" result="effect2_dropShadow_411_6886"/>
<feBlend mode="normal" in="SourceGraphic" in2="effect2_dropShadow_411_6886" result="shape"/>
</filter>
<clipPath id="clip0_411_6886">
<rect width="70" height="60" fill="white"/>
</clipPath>
</defs>
</svg>
