<svg width="70" height="60" viewBox="0 0 70 60" fill="none" xmlns="http://www.w3.org/2000/svg">
<g clip-path="url(#clip0_411_6912)">
<g filter="url(#filter0_dd_411_6912)">
<path d="M49.2192 18.6747L50.1684 12.0745L50.1738 11.9736C50.1738 10.3328 48.8353 9 47.1875 9H22.9085C21.2607 9 19.9222 10.3328 19.9222 11.9736V12.0267L20.8714 18.6269C18.5518 19.9969 17 22.5085 17 25.3759V26.6556C17 30.3832 19.6183 33.5107 23.1218 34.3179L23.5697 37.4401C23.6017 39.0543 24.9295 40.3606 26.5559 40.3606H31.3765L32.0484 45.0864H29.9527C28.7849 45.0864 28.0384 45.4263 27.8944 46.0051L25.676 50.6884V50.853C25.676 51.5646 26.4546 51.9894 27.7611 51.9894H42.3349C43.6414 51.9894 44.4199 51.5646 44.4199 50.853V50.6884L42.2016 46.0051C42.0523 45.4263 41.3057 45.0864 40.1432 45.0864H38.0475L38.7248 40.3606H43.5347C45.1665 40.3606 46.4943 39.0543 46.521 37.4401L46.9742 34.2966C50.4297 33.4576 53 30.3513 53 26.6556V25.3759C53 22.5457 51.4856 20.0606 49.2192 18.6747ZM18.4611 26.6609V25.3812C18.4611 23.2625 19.501 21.3881 21.0954 20.2199L22.8978 32.7514C20.3275 31.9071 18.4611 29.4964 18.4611 26.6609ZM45.0652 37.2861L45.0598 37.387C45.0598 38.226 44.3773 38.9057 43.5347 38.9057H37.557H37.477L37.269 40.3606L36.5971 45.0864L36.3891 46.5414H36.7944H40.1326C40.4792 46.5414 40.7351 46.5892 40.8685 46.6263L42.7082 50.5132C42.5962 50.5238 42.4682 50.5345 42.3242 50.5345H27.7611C27.6171 50.5345 27.4838 50.5238 27.3771 50.5132L29.2169 46.6263C29.3555 46.5892 29.6061 46.5414 29.9527 46.5414H33.2909H33.7282L33.5096 45.0864L32.587 38.9057H32.539H26.5613C25.7187 38.9057 25.0361 38.226 25.0361 37.387V37.3339L21.378 11.9258C21.4047 11.1081 22.0766 10.4549 22.9031 10.4549H47.1822C48.0087 10.4549 48.6806 11.1134 48.7073 11.9258L45.0652 37.2861ZM51.5389 26.6609C51.5389 29.4646 49.7205 31.8434 47.2035 32.7142L48.9899 20.2783C50.5364 21.4518 51.5389 23.2997 51.5389 25.3812V26.6609Z" fill="#FF267E"/>
<path d="M35.7545 19.2378V28.9072H33.6695V21.5901C33.5522 21.691 33.4188 21.7866 33.2642 21.8768C33.1096 21.9671 32.9389 22.0468 32.7629 22.1211C32.587 22.1954 32.4057 22.2538 32.2137 22.3069C32.0217 22.36 31.8351 22.3919 31.6484 22.4131V20.6609C32.1924 20.5016 32.7043 20.2998 33.1842 20.0555C33.6641 19.8113 34.1014 19.5405 34.4907 19.2431H35.7545V19.2378Z" fill="#FF267E"/>
<path d="M34.6827 33.6597C29.3769 33.6597 25.0575 29.3586 25.0575 24.0752C25.0575 18.7918 29.3769 14.4907 34.6827 14.4907C39.9886 14.4907 44.308 18.7918 44.308 24.0752C44.3133 29.3586 39.9939 33.6597 34.6827 33.6597ZM34.6827 15.7651C30.0808 15.7651 26.3373 19.4927 26.3373 24.0752C26.3373 28.6577 30.0808 32.3853 34.6827 32.3853C39.2847 32.3853 43.0282 28.6577 43.0282 24.0752C43.0335 19.4927 39.2901 15.7651 34.6827 15.7651Z" fill="#FF267E"/>
</g>
</g>
<defs>
<filter id="filter0_dd_411_6912" x="7" y="-1" width="56" height="62.9893" filterUnits="userSpaceOnUse" color-interpolation-filters="sRGB">
<feFlood flood-opacity="0" result="BackgroundImageFix"/>
<feColorMatrix in="SourceAlpha" type="matrix" values="0 0 0 0 0 0 0 0 0 0 0 0 0 0 0 0 0 0 127 0" result="hardAlpha"/>
<feOffset/>
<feGaussianBlur stdDeviation="5"/>
<feComposite in2="hardAlpha" operator="out"/>
<feColorMatrix type="matrix" values="0 0 0 0 1 0 0 0 0 0.14902 0 0 0 0 0.494118 0 0 0 1 0"/>
<feBlend mode="normal" in2="BackgroundImageFix" result="effect1_dropShadow_411_6912"/>
<feColorMatrix in="SourceAlpha" type="matrix" values="0 0 0 0 0 0 0 0 0 0 0 0 0 0 0 0 0 0 127 0" result="hardAlpha"/>
<feOffset/>
<feGaussianBlur stdDeviation="5"/>
<feComposite in2="hardAlpha" operator="out"/>
<feColorMatrix type="matrix" values="0 0 0 0 1 0 0 0 0 0.14902 0 0 0 0 0.494118 0 0 0 1 0"/>
<feBlend mode="normal" in2="effect1_dropShadow_411_6912" result="effect2_dropShadow_411_6912"/>
<feBlend mode="normal" in="SourceGraphic" in2="effect2_dropShadow_411_6912" result="shape"/>
</filter>
<clipPath id="clip0_411_6912">
<rect width="70" height="60" fill="white"/>
</clipPath>
</defs>
</svg>
