<svg width="88" height="109" viewBox="0 0 88 109" fill="none" xmlns="http://www.w3.org/2000/svg">
<g clip-path="url(#clip0_112_1990)">
<path d="M0.299913 35.89C6.90991 40.95 14.5099 44.74 21.2599 49.68C27.9599 54.59 34.3399 60 40.2299 65.85C46.3499 71.94 51.9199 78.55 56.9199 85.59C59.3199 88.97 61.5899 92.45 63.7099 96.01C65.7599 99.45 67.3299 103.41 69.9199 106.47C71.5799 108.43 73.0699 105.61 72.6199 103.95C70.5699 96.23 65.1199 88.9 60.5399 82.47C55.4899 75.39 49.7799 68.76 43.5999 62.65C37.3699 56.49 30.6299 50.88 23.3699 45.97C16.6499 41.42 8.69991 36.07 0.699913 34.27C-0.110087 34.09 -0.200087 35.51 0.289913 35.89H0.299913Z" fill="#2F313C"/>
<path d="M0.40012 108.27C13.0001 89 25.9201 69.85 40.5701 52.07C47.6501 43.47 55.1201 35.17 62.8801 27.18C70.7401 19.08 80.0601 11.9 87.1101 3.10003C87.7101 2.35003 87.2801 -0.649969 85.8901 0.130031C76.1901 5.54003 68.0101 15.21 60.3601 23.12C52.4601 31.29 44.9801 39.83 37.8501 48.68C23.0801 67.01 10.0701 86.59 0.0701201 107.9C-0.0298799 108.1 0.21012 108.57 0.40012 108.27Z" fill="#2F313C"/>
</g>
<defs>
<clipPath id="clip0_112_1990">
<rect width="87.37" height="108.37" fill="white"/>
</clipPath>
</defs>
</svg>
