<svg width="90" height="111" viewBox="0 0 90 111" fill="none" xmlns="http://www.w3.org/2000/svg">
<g clip-path="url(#clip0_112_1993)">
<path d="M0.000107782 64.18C2.41011 72.96 9.95011 81.02 15.6401 87.92C22.0201 95.65 28.9501 102.96 36.1901 109.9C37.9501 111.59 38.7301 107.99 38.6001 106.93C36.1901 86.48 39.9401 65.77 49.3201 47.43C53.8301 38.61 59.5101 30.39 66.2901 23.17C73.1801 15.82 81.4301 10.38 88.9601 3.78999C90.0101 2.86999 89.7001 -0.550007 87.8301 0.0699928C77.9101 3.33999 69.4001 11.66 62.5701 19.3C55.5001 27.21 49.6001 36.09 45.0201 45.65C35.7501 65.02 31.9701 87.1 35.3701 108.37C36.1701 107.38 36.9801 106.39 37.7801 105.4C30.2601 98.91 23.3101 91.91 16.9001 84.32C13.9301 80.8 11.0901 77.17 8.32011 73.49C5.85011 70.22 3.69011 66.18 0.250108 63.85C0.0601078 63.72 -0.0498922 64.02 -0.00989222 64.17H0.000107782V64.18Z" fill="#2F313C"/>
</g>
<defs>
<clipPath id="clip0_112_1993">
<rect width="89.57" height="110.34" fill="white"/>
</clipPath>
</defs>
</svg>
