<svg width="357" height="61" viewBox="0 0 357 61" fill="none" xmlns="http://www.w3.org/2000/svg">
<path d="M1.36409 0.249966C-3.14591 11.21 4.20409 23.52 13.5041 29.34C28.0341 38.43 47.6241 35.84 63.8941 35.54C83.8541 35.17 223.804 34.89 243.764 34.5C263.624 34.12 283.594 33.11 303.454 33.51C322.394 33.89 344.144 39.03 352.404 58.23C353.484 60.73 355.254 57.82 354.654 56.12C343.344 23.97 300.204 29.19 273.604 29.88C254.314 30.38 235.024 30.86 215.744 31.41C197.424 31.93 58.9941 33.08 40.6641 32.79C30.9541 32.63 20.4441 31.45 12.3741 25.56C4.35409 19.71 -0.265912 10.52 1.98409 0.619966C2.08409 0.199966 1.59409 -0.320034 1.36409 0.239966V0.249966Z" fill="white"/>
<path d="M330.404 48.26C339.084 51.37 347.094 54.46 354.604 60C355.964 61 356.424 58.79 356.324 57.88C355.374 49.64 354.894 41.16 353.264 33.02C352.884 31.14 351.014 31.82 351.084 33.53C351.434 41.99 352.984 50.52 354.024 58.92C354.594 58.22 355.174 57.51 355.744 56.8C348.394 51.52 339.674 47.39 330.484 47.14C330.004 47.13 330.034 48.12 330.414 48.25L330.404 48.26Z" fill="white"/>
</svg>
